<svg xmlns="http://www.w3.org/2000/svg" viewBox="0 0 680 72" role="img" aria-label="Waveform for Track 142">
  <path d="M6 30v12M16.5 31v10M27 28v16M37.5 30v12M48 25v22M58.5 28v16M69 29v14M79.5 25v22M90 28v16M100.5 30v12M111 29v14M121.5 28v16M132 28v16M142.5 29v14M153 29v14M163.5 29v14M174 19v34M184.5 13v46M195 9v54M205.5 12v48M216 8v56M226.5 12v48M237 9v54M247.5 11v50M258 14v44M268.5 12v48M279 11v50M289.5 12v48M300 12v48M310.5 14v44M321 11v50M331.5 12v48M342 12v48M352.5 17v38M363 17v38M373.5 16v40M384 17v38M394.5 18v36M405 18v36M415.5 15v42M426 18v36M436.5 21v30M447 31v10M457.5 28v16M468 30v12M478.5 28v16M489 26v20M499.5 29v14M510 30v12M520.5 28v16M531 28v16M541.5 30v12M552 29v14M562.5 27v18M573 27v18M583.5 29v14M594 30v12M604.5 28v16M615 31v10M625.5 33v6M636 33v6M646.5 33v6M657 33v6M667.5 33v6"
    fill="none" stroke="#f5f5f5" stroke-linecap="round" stroke-width="3"/>
</svg>
